HIERARCHY
ROOT WRIST
{
	OFFSET 0.000000 0.000000 0.000000
	CHANNELS 6 Xposition Yposition Zposition Yrotation Xrotation Zrotation
	JOINT THUMB_CMC_FE
	{
		OFFSET -0.225143 0.117753 -0.062308
		CHANNELS 3 Yrotation Xrotation Zrotation
		JOINT THUMB_CMC_AA
		{
			OFFSET -0.212856 -0.150507 0.098851
			CHANNELS 3 Yrotation Xrotation Zrotation
			JOINT THUMB_MCP_FE
			{
				OFFSET 0.322503 -0.167445 -0.031436
				CHANNELS 3 Yrotation Xrotation Zrotation
				JOINT THUMB_IP_FE
				{
					OFFSET -0.295233 -0.236404 0.025845
					CHANNELS 3 Yrotation Xrotation Zrotation
					End Site
					{
						OFFSET 0.000000 0.000000 0.000000
					}
				}
			}
		}
	}
	JOINT INDEX_MCP
	{
		OFFSET -1.076913 0.264198 -0.014768
		CHANNELS 3 Yrotation Xrotation Zrotation
		JOINT INDEX_PIP_FE
		{
			OFFSET -0.425053 0.013289 0.013619
			CHANNELS 3 Yrotation Xrotation Zrotation
			JOINT INDEX_DIP_FE
			{
				OFFSET -0.271505 -0.024898 0.000550
				CHANNELS 3 Yrotation Xrotation Zrotation
				End Site
				{
					OFFSET 0.000000 0.000000 0.000000
				}
			}
		}
	}
	JOINT MIDDLE_MCP
	{
		OFFSET -1.072991 0.019362 0.038780
		CHANNELS 3 Yrotation Xrotation Zrotation
		JOINT MIDDLE_PIP_FE
		{
			OFFSET -0.480704 0.002618 0.028696
			CHANNELS 3 Yrotation Xrotation Zrotation
			JOINT MIDDLE_DIP_FE
			{
				OFFSET -0.307486 -0.031129 -0.000643
				CHANNELS 3 Yrotation Xrotation Zrotation
				End Site
				{
					OFFSET 0.000000 0.000000 0.000000
				}
			}
		}
	}
	JOINT RING_MCP
	{
		OFFSET -0.994992 -0.195930 -0.005938
		CHANNELS 3 Yrotation Xrotation Zrotation
		JOINT RING_PIP_FE
		{
			OFFSET -0.436995 0.003792 0.019994
			CHANNELS 3 Yrotation Xrotation Zrotation
			JOINT RING_DIP_FE
			{
				OFFSET -0.295558 -0.038341 -0.006642
				CHANNELS 3 Yrotation Xrotation Zrotation
				End Site
				{
					OFFSET 0.000000 0.000000 0.000000
				}
			}
		}
	}
	JOINT PINKY_MCP
	{
		OFFSET -0.873858 -0.393246 -0.086282
		CHANNELS 3 Yrotation Xrotation Zrotation
		JOINT PINKY_PIP_FE
		{
			OFFSET -0.343972 -0.016492 0.013445
			CHANNELS 3 Yrotation Xrotation Zrotation
			JOINT PINKY_DIP_FE
			{
				OFFSET -0.224713 -0.036309 -0.010265
				CHANNELS 3 Yrotation Xrotation Zrotation
				End Site
				{
					OFFSET 0.000000 0.000000 0.000000
				}
			}
		}
	}
}
MOTION
Frames: 7
Frame Time: 0.008333334
2.401192 3.234451 5.017946 -165.456200 -63.407350 0.266695 -61.461180 4.834478 -62.078430 -119.352900 -30.976960 3.976216 112.863900 -65.843230 59.018460 -4.562073 -8.459839 22.604630 149.721100 2.869676 178.761900 41.978460 -86.125550 -25.863920 2.052619 1.705003 30.301450 172.153200 -1.531128 164.096700 39.240670 -88.411560 -27.292390 6.002517 4.395446 7.168210 -161.553300 -0.769074 158.710500 31.479760 -85.617800 4.536627 -0.199310 0.562926 2.642795 -152.300000 -2.961090 155.448200 48.977540 -83.530610 -5.255005 -5.539795 0.809187 45.348380 
2.401817 3.233728 5.015382 -166.341800 -63.569270 1.073989 -61.461180 4.834470 -62.057710 -119.352900 -30.976930 3.962344 112.864000 -65.843230 59.010000 -4.562103 -8.459839 22.604640 151.247800 2.920070 179.150500 41.978370 -86.125610 -24.556610 2.052631 1.705001 30.692030 172.640500 -1.484344 164.079300 39.241970 -88.411440 -27.198360 6.002518 4.395454 6.916276 -161.553300 -0.769074 158.662600 31.479580 -85.617860 3.962413 -0.199310 0.562927 2.599463 -152.660300 -3.107544 155.931300 48.977600 -83.530580 -6.060272 -5.539795 0.809155 45.055640 
2.401930 3.234621 5.014852 -166.692800 -63.466670 1.451108 -61.461180 4.834465 -62.087280 -119.352900 -30.976930 3.971349 112.864000 -65.843260 59.005610 -4.562103 -8.459839 22.604630 151.834300 2.938886 179.249600 41.978550 -86.125670 -23.773320 2.052624 1.705004 30.508400 172.888300 -1.460541 164.058500 39.241290 -88.411440 -27.375700 6.002519 4.395453 6.805624 -161.553300 -0.769104 158.662000 31.479810 -85.617800 3.622322 -0.199310 0.562915 2.178428 -153.008700 -3.249023 156.234700 48.977630 -83.530610 -6.579224 -5.539825 0.809173 44.767200 
2.400737 3.239014 5.013770 -167.014700 -63.473390 1.741375 -61.461180 4.834478 -62.098450 -119.352900 -30.976960 3.996265 112.864000 -65.843260 58.968050 -4.562073 -8.459839 22.604610 151.904000 2.941111 179.147100 41.978290 -86.125550 -23.660770 2.052629 1.705008 30.127700 173.176900 -1.432739 163.904400 39.240990 -88.411440 -27.451750 6.002532 4.395449 6.689909 -161.553300 -0.769074 158.655700 31.479500 -85.617800 3.293950 -0.199310 0.562923 2.100132 -153.042100 -3.262573 156.247200 48.977550 -83.530640 -7.189545 -5.539795 0.809172 44.426540 
2.398707 3.245980 5.013240 -167.208400 -63.565060 1.864384 -61.461180 4.834476 -62.137450 -119.352900 -30.976930 4.010058 112.864000 -65.843230 58.958680 -4.562073 -8.459869 22.604580 151.474700 2.927395 178.494700 41.978440 -86.125550 -24.698000 2.052629 1.704987 29.295400 173.261900 -1.424561 163.642800 39.241440 -88.411320 -27.961760 6.002521 4.395453 6.690300 -161.553300 -0.769074 158.541100 31.479530 -85.617830 2.910644 -0.199310 0.562930 1.908415 -152.774700 -3.154022 156.163300 48.977540 -83.530610 -7.589966 -5.539795 0.809172 44.625550 
2.393981 3.257100 5.012283 -167.801500 -64.204410 2.343365 -61.461180 4.834470 -62.150270 -119.352900 -30.976930 4.061756 112.863900 -65.843260 58.927760 -4.562073 -8.459839 22.604610 151.529600 2.929146 177.790500 41.978340 -86.125550 -25.414490 2.052631 1.705008 29.042640 173.641600 -1.387939 163.587700 39.240970 -88.411440 -28.369630 6.002511 4.395442 6.156539 -161.553300 -0.769074 158.598100 31.479490 -85.617860 2.138744 -0.199310 0.562908 1.339256 -152.981800 -3.238098 156.423400 48.977560 -83.530640 -8.280548 -5.539795 0.809171 44.092090 
2.387950 3.269433 5.014830 -167.865100 -64.993900 2.421832 -61.461180 4.834478 -62.257320 -119.352900 -30.976960 4.120957 112.864000 -65.843230 58.932400 -4.562073 -8.459869 22.604570 151.206800 2.918758 176.746800 41.978200 -86.125550 -27.135380 2.052627 1.705002 28.862870 173.921800 -1.360840 163.473500 39.241040 -88.411440 -29.751770 6.002513 4.395450 5.411638 -161.553300 -0.769074 158.808900 31.479570 -85.617800 1.812886 -0.199310 0.562933 1.733906 -153.270800 -3.355347 156.730400 48.977580 -83.530670 -9.193909 -5.539795 0.809183 43.969280 
